<svg width="1024" height="1024" viewBox="0 0 1024 1024" fill="none" xmlns="http://www.w3.org/2000/svg">
<rect width="1024" height="1024" fill="black" fill-opacity="0.2"/>
<path d="M472.909 352.993C437.253 352.995 401.596 352.997 365.24 352.999C364.541 353 364.079 353 363.865 353.355C363.432 355.011 363.026 356.31 363.023 357.611C362.982 373.602 362.976 389.593 363.041 405.584C363.047 407.033 363.599 408.48 363.951 410.354C363.969 412.211 363.933 413.642 363.713 415.434C363.223 426.583 362.916 437.371 362.594 448.667C360.292 447.912 358.775 447.416 357.259 446.919C354.139 439.501 350.804 432.165 347.938 424.65C339.215 401.777 330.715 378.819 322.046 355.925C316.497 341.267 310.768 326.677 305.199 312.027C303.738 308.184 301.253 306.122 297.267 304.631C282.461 299.091 267.873 292.969 253.173 287.142C243.862 283.451 234.467 279.968 225.165 276.254C216.913 272.96 208.736 269.477 200.427 265.55C202.078 264.684 203.825 264.078 205.58 264.05C213.744 263.92 221.911 263.926 230.076 263.927C338.729 263.946 447.382 263.971 556.036 263.995C572.336 265.319 588.64 266.593 604.935 267.979C624.734 269.663 643.993 274.42 662.844 280.205C679.478 285.31 695.515 292.404 711.719 298.862C728.625 305.599 744.24 314.834 758.986 325.356C770.172 333.338 780.693 342.27 791.319 351.012C796.8 355.522 802.262 360.175 807.034 365.401C816.218 375.459 824.908 385.969 833.777 396.314C833.919 396.479 833.735 396.923 833.617 398.078C831.25 397.165 829.013 396.442 826.895 395.462C803.213 384.503 778.985 374.897 754.063 367.196C743.497 363.93 732.56 361.84 721.755 359.372C698.094 353.967 674.067 351.447 649.849 352.026C608.499 353.014 569.178 362.236 533.217 383.375C523.179 389.276 513.639 396.024 503.87 402.384C504.059 402.941 504.248 403.498 504.437 404.056C521.993 404.056 539.548 404.056 557.569 404.484C557.992 405.988 557.948 407.064 557.725 408.493C557.369 410.656 557.04 412.467 557.039 414.277C557.009 466.069 557 517.861 557.049 569.653C557.051 571.76 557.656 573.867 558.019 576.231C558.093 576.834 558.127 577.179 558.162 577.524C544.778 578.801 532.276 575.263 520.136 570.238C506.029 564.398 494.512 555.056 485.807 542.58C479.012 532.841 475.132 521.826 474.05 509.146C474.124 507.88 474.153 507.395 474.346 506.628C474.359 504.91 474.21 503.474 474.035 501.691C474.03 500.88 474.052 500.416 474.273 499.596C474.657 497.431 475.002 495.624 475.004 493.816C475.031 449.194 475.033 404.573 474.984 359.951C474.982 357.999 474.458 356.048 474.039 353.834C473.57 353.379 473.24 353.186 472.909 352.993Z" fill="url(#paint0_linear_0_1)" style="mix-blend-mode:lighten"/>
<path d="M537.01 644.998C537.454 645.031 537.898 645.064 538.739 645.482C539.455 647.418 539.776 648.968 540.354 651.765C545.98 644.882 552.993 647.293 559.446 647.069C567.269 646.797 575.112 647.122 582.938 646.906C584.715 646.857 586.979 646.115 588.104 644.867C590.073 642.681 589.085 633.936 587.039 631.614C584.988 629.287 582.972 626.949 579.621 630.127C578.813 630.895 577.116 630.939 575.824 630.949C567.195 631.017 558.561 631.142 549.941 630.854C548.212 630.796 546.6 628.911 544.823 628.117C543.395 627.479 541.424 626.412 540.339 626.918C533.156 630.268 526.482 627.418 520.905 624.049C517.015 621.699 514.019 619.507 509.283 620.336C504.836 621.114 498.301 616.261 496.761 612.176C496.161 610.585 494.473 608.627 492.959 608.292C486.171 606.791 482.666 602.169 480.145 596.277C479.082 593.792 479.976 592.693 482.381 591.874C485.895 590.679 488.593 591.709 491.728 593.463C493.837 594.643 496.997 593.945 499.688 594.087C499.505 591.931 499.327 589.774 499.138 587.619C499.085 587.003 499.004 586.389 498.906 585.508C502.374 585.01 504.671 585.336 506.151 589.05C507.754 593.072 509.85 597.125 512.661 600.356C514.494 602.463 517.976 604.144 520.736 604.17C523.866 604.199 527.011 602.467 527.255 598.003C527.333 596.596 529.694 595.315 531.009 593.976C531.45 593.995 531.89 594.015 532.816 594.302C534.936 595.566 537.832 596.402 537.982 597.586C538.586 602.347 541.883 600.97 544.351 600.733C547.93 600.391 551.452 599.453 555.195 598.731C557.117 603.369 560.086 607.319 565.611 605.732C569.881 604.505 573.728 601.807 577.767 599.769C578.912 599.191 580.077 598.124 581.217 598.145C597.968 598.443 614.72 598.78 631.463 599.373C635.522 599.517 639.622 596.911 639.902 592.812C640.048 590.677 639.512 588.499 639.611 586.355C639.845 581.28 640.274 576.214 640.625 571.145C641.111 571.115 641.597 571.086 642.083 571.056C644.285 574.092 646.16 574.842 647.395 570.567C647.672 569.611 648.19 568.724 648.444 567.764C649.429 564.035 648.088 562.495 644.489 563.857C641.142 565.124 640.08 563.289 639.508 560.934C638.839 558.178 638.763 555.283 638.356 552.459C637.654 547.576 636.523 546.949 632.252 549.371C628.899 551.272 626.078 552.272 624.583 547.315C624.344 546.522 623.345 545.729 622.512 545.382C617.212 543.175 608.678 545.624 604.706 550.316C604.204 550.908 603.027 551.797 602.828 551.649C597.941 548.037 589.733 557.297 586.479 547.467C586.383 547.178 585.425 547.257 585.158 546.929C583.407 544.776 580.621 542.717 580.279 540.327C579.646 535.905 580.534 531.278 580.653 526.733C580.83 519.917 581.193 513.086 580.926 506.282C580.556 496.88 579.434 487.507 579.09 478.104C578.827 470.891 579.979 470.01 587.024 470.003C602.128 469.988 617.232 469.998 632.336 469.999C649.151 470 665.968 469.904 682.78 470.1C685.597 470.132 688.367 471.628 691.218 472.078C693.216 472.393 695.647 472.753 697.306 471.929C703.303 468.949 709.807 469.14 714.9 473.456C714.92 475.232 714.905 476.601 714.616 478.06C713.836 478.657 713.332 479.163 712.827 479.668C713.517 480.127 714.207 480.585 714.92 481.508C714.965 498.255 714.999 514.536 715.007 530.818C715.018 554.629 714.986 578.441 715.047 602.253C715.053 604.541 715.581 606.828 715.925 609.335C715.984 609.553 715.96 610.005 715.96 610.005C715.96 610.005 715.935 610.487 715.703 611.079C714.999 615.741 714.526 619.81 714.039 624.326C714.327 627.507 714.63 630.242 714.948 633.447C714.954 640.612 714.944 647.307 714.873 654.121C714.734 654.509 714.775 654.761 714.952 655.466C714.946 688.277 714.924 720.621 714.729 753.304C713.746 756.872 714.211 760.971 708.992 760.961C688.994 760.924 668.997 760.985 649 760.904C647.86 760.899 646.431 760.23 645.646 759.393C643.891 757.522 642.458 755.349 640.164 752.342C639.923 746.971 639.49 740.017 639.337 733.057C639.221 727.767 637.259 726.191 632.237 728.5C630.681 729.215 628.634 728.967 626.812 728.976C618.146 729.016 609.478 729.117 600.815 728.963C588.339 728.741 575.864 728.361 563.393 727.92C562.03 727.872 560.668 727.052 559.356 726.474C556.576 725.249 553.699 722.648 551.093 722.911C541.591 723.867 535.48 718.871 529.853 712.557C532.251 708.386 534.385 704.043 537.147 700.146C538.453 698.303 540.861 696.322 542.94 696.114C550.185 695.39 557.504 695.228 564.796 695.194C576.612 695.138 588.436 695.153 600.241 695.569C604.005 695.702 607.252 694.486 607.744 690.671C608.098 687.921 608 684.958 607.352 682.271C606.505 678.75 604.729 676.005 600.224 678.443C599.009 679.1 597.297 678.972 595.813 678.976C580.528 679.018 565.241 678.963 549.957 679.091C548.297 679.105 546.645 680.094 544.684 680.708C544.175 680.842 543.972 680.898 543.769 680.954C543.769 680.954 543.373 680.898 543.004 680.539C539.356 679.349 536.07 678.544 532.8 677.683C528.385 676.521 523.92 675.502 519.599 674.055C517.231 673.262 515.115 671.716 512.828 670.479C512.828 667.985 513.833 664.543 512.587 662.426C510.827 659.438 507.403 657.431 504.464 654.803C501.535 659.392 496.688 657.175 492.427 657.511C484.629 658.126 482.006 656.089 481.294 651.022C477.161 646.802 473.971 643.922 471.352 640.593C470.732 639.805 471.73 637.342 472.517 635.952C473.504 634.208 475.041 632.776 476.341 631.209C474.476 631.69 472.628 632.456 470.742 632.566C469.036 632.666 467.245 632.185 465.589 631.657C465.148 631.517 464.634 630.034 464.887 629.554C466.43 626.63 468.186 623.817 469.195 622.109C472.186 623.373 474.762 624.314 477.19 625.547C478.462 626.193 479.501 627.32 480.599 628.281C483.259 630.607 485.848 633.017 488.59 635.241C488.948 635.531 490.111 635.068 490.769 634.71C494.301 632.789 495.509 634.179 494.885 637.698C494.304 640.978 496.482 641.053 498.473 640.773C499.99 640.559 501.391 639.525 502.875 638.841C504.24 644.696 506.588 646.186 512.478 645.2C515.344 644.72 518.305 643.77 521.09 644.113C524.457 644.529 527.624 646.533 530.993 646.979C532.878 647.229 534.996 645.716 537.01 644.998ZM526.969 653.875C527.988 653.39 529.006 652.905 530.024 652.421C529.93 652.025 529.836 651.63 529.742 651.235C527.084 650.951 524.426 650.668 521.768 650.385C521.629 651.105 521.49 651.824 521.351 652.544C522.974 653.008 524.597 653.472 526.969 653.875ZM511.809 611.359C510.374 611.524 508.94 611.689 507.505 611.853C507.404 612.489 507.303 613.125 507.201 613.761C508.832 614.237 510.462 614.714 512.092 615.19C512.205 614.014 512.318 612.837 511.809 611.359ZM530.556 610.311C531.809 610.375 533.063 610.439 534.317 610.503C534.173 609.771 534.03 609.039 533.887 608.307C532.807 608.776 531.727 609.245 530.556 610.311ZM514.732 657.133C514.638 656.344 514.544 655.556 514.45 654.767C513.901 654.99 513.352 655.214 512.804 655.437C513.287 656.068 513.77 656.699 514.732 657.133Z" fill="#9350C7"/>
<path d="M530.823 593.649C529.694 595.315 527.333 596.596 527.255 598.003C527.011 602.467 523.866 604.199 520.736 604.17C517.976 604.144 514.494 602.463 512.661 600.356C509.85 597.125 507.754 593.072 506.151 589.05C504.671 585.336 502.374 585.01 498.906 585.508C499.004 586.389 499.085 587.003 499.138 587.619C499.327 589.774 499.505 591.931 499.688 594.087C496.997 593.945 493.837 594.643 491.728 593.463C488.593 591.709 485.895 590.679 482.381 591.874C479.976 592.693 479.082 593.792 480.145 596.277C482.666 602.169 486.171 606.791 492.959 608.292C494.473 608.627 496.161 610.585 496.761 612.176C498.301 616.261 504.836 621.114 509.283 620.336C514.019 619.507 517.015 621.699 520.905 624.049C526.482 627.418 533.156 630.268 540.339 626.918C541.424 626.412 543.395 627.479 544.823 628.117C546.6 628.911 548.212 630.796 549.941 630.854C558.561 631.142 567.195 631.017 575.824 630.949C577.116 630.939 578.813 630.895 579.621 630.128C582.972 626.949 584.988 629.287 587.039 631.614C589.085 633.936 590.073 642.681 588.104 644.867C586.979 646.115 584.715 646.857 582.938 646.906C575.112 647.122 567.269 646.797 559.446 647.069C552.993 647.293 545.98 644.882 540.354 651.765C539.776 648.968 539.455 647.418 539.063 645.56C540.733 645.208 542.475 645.164 545.024 645.326C558.269 645.655 570.706 645.798 583.144 645.857C584.074 645.862 585.006 645.263 585.938 644.945C585.938 641.148 585.938 637.352 585.938 632.957C575.223 632.957 564.786 632.952 554.349 632.957C535.88 632.966 518.458 628.75 501.564 621.214C482.877 612.879 468.091 600.207 456.195 583.826C447.922 572.434 441.937 559.835 439.248 546.125C435.349 526.242 437.005 506.805 447.585 488.855C449.533 485.549 451.49 482.248 453.522 478.994C453.817 478.522 454.556 478.329 455.744 477.611C451.008 535.799 473.766 575.734 530.823 593.649Z" fill="#9350C7"/>
<path d="M714.866 473.049C709.807 469.14 703.303 468.949 697.306 471.929C695.647 472.753 693.216 472.393 691.218 472.078C688.367 471.628 685.597 470.132 682.78 470.1C665.968 469.904 649.151 470 632.336 469.999C617.232 469.998 602.128 469.988 587.024 470.003C579.979 470.01 578.827 470.891 579.09 478.104C579.434 487.507 580.556 496.88 580.926 506.282C581.193 513.086 580.83 519.917 580.653 526.733C580.534 531.278 579.646 535.905 580.279 540.327C580.621 542.717 583.407 544.776 585.158 546.929C585.425 547.257 586.383 547.178 586.479 547.467C589.733 557.297 597.941 548.037 602.828 551.649C603.027 551.797 604.204 550.908 604.706 550.316C608.678 545.624 617.212 543.175 622.512 545.382C623.345 545.729 624.344 546.522 624.583 547.315C626.078 552.272 628.899 551.272 632.252 549.371C636.523 546.949 637.654 547.576 638.356 552.459C638.763 555.283 638.839 558.178 639.508 560.934C640.08 563.289 641.142 565.124 644.489 563.857C648.088 562.495 649.429 564.035 648.444 567.764C648.19 568.724 647.672 569.612 647.395 570.567C646.16 574.842 644.285 574.092 642.083 571.056C641.597 571.086 641.111 571.115 640.625 571.145C640.274 576.214 639.845 581.28 639.611 586.355C639.512 588.499 640.048 590.677 639.902 592.812C639.622 596.911 635.522 599.517 631.463 599.373C614.72 598.78 597.968 598.443 581.217 598.145C580.077 598.124 578.912 599.191 577.767 599.769C573.728 601.807 569.881 604.505 565.611 605.732C560.086 607.319 557.117 603.369 555.195 598.731C551.452 599.453 547.93 600.391 544.351 600.733C541.883 600.97 538.586 602.347 537.982 597.586C537.832 596.402 534.936 595.566 533.146 594.27C541.063 594.97 549.115 596.264 557.218 596.854C561.763 597.186 566.391 596.111 570.985 596.086C591.11 595.978 611.238 595.93 631.363 596.083C635.578 596.115 637.293 595.021 637.17 590.476C636.876 579.673 637.08 568.856 637.021 557.236C636.576 555.606 636.193 554.783 635.81 553.961C635.81 553.961 635.981 553.911 635.645 553.789C633.18 553.442 631.051 553.03 628.921 553.022C613.785 552.965 598.647 552.899 583.512 553.051C579.458 553.091 577.9 551.709 577.924 547.566C578.076 521.12 578.057 494.674 578.094 468.228C597.239 468.165 616.384 468.046 635.53 468.052C662.17 468.062 688.81 468.165 715.699 468.83C715.949 469.432 715.847 469.899 715.69 470.192C715.311 471.34 715.088 472.194 714.866 473.049Z" fill="#9350C7"/>
<path d="M544.99 680.631C546.645 680.094 548.297 679.105 549.957 679.091C565.241 678.963 580.528 679.018 595.813 678.976C597.297 678.972 599.009 679.1 600.224 678.443C604.729 676.005 606.505 678.75 607.352 682.271C608 684.958 608.098 687.921 607.744 690.671C607.252 694.486 604.005 695.702 600.241 695.569C588.436 695.153 576.612 695.138 564.796 695.194C557.504 695.228 550.185 695.39 542.94 696.114C540.861 696.322 538.453 698.303 537.147 700.146C534.385 704.043 532.251 708.386 529.853 712.557C535.48 718.871 541.591 723.867 551.093 722.911C553.699 722.648 556.576 725.249 559.356 726.474C560.668 727.052 562.03 727.872 563.393 727.92C575.864 728.361 588.339 728.741 600.815 728.963C609.478 729.117 618.146 729.016 626.812 728.976C628.634 728.967 630.681 729.215 632.237 728.5C637.259 726.191 639.221 727.767 639.337 733.057C639.49 740.017 639.923 746.971 640.164 752.342C642.458 755.349 643.891 757.522 645.646 759.393C646.431 760.23 647.86 760.899 649 760.904C668.997 760.985 688.994 760.924 708.992 760.961C714.211 760.971 713.746 756.872 714.758 753.756C714.813 757.625 716.433 762.114 709.666 762.05C685.543 761.824 661.416 761.909 637.291 761.876C637.219 753.484 637.179 745.091 637.047 736.699C637.023 735.12 636.634 733.546 635.867 731.36C634.04 730.493 632.76 730.012 631.48 730.011C608.272 729.998 585.064 730.043 561.856 730.075C532.612 728.96 508.723 704.39 507.456 687.162C517.924 689.104 528.528 691.072 539.95 693.268C541.58 693.642 542.391 693.911 543.203 693.913C562.402 693.951 581.602 693.987 600.801 693.924C602.196 693.919 603.589 693.149 604.983 692.736C604.972 689.557 604.96 686.378 604.676 682.451C602.306 681.429 600.21 680.934 598.11 680.917C580.404 680.772 562.697 680.715 544.99 680.631Z" fill="#9350C7"/>
<path d="M536.835 644.682C534.996 645.716 532.878 647.229 530.993 646.979C527.624 646.533 524.457 644.529 521.09 644.113C518.305 643.77 515.344 644.72 512.478 645.2C506.588 646.186 504.24 644.696 502.875 638.841C501.391 639.525 499.99 640.559 498.473 640.773C496.482 641.053 494.304 640.978 494.885 637.698C495.509 634.179 494.301 632.789 490.769 634.71C490.111 635.068 488.948 635.531 488.59 635.241C485.848 633.017 483.259 630.607 480.599 628.281C479.501 627.32 478.462 626.193 477.19 625.547C474.762 624.314 472.186 623.373 469.196 622.109C468.186 623.817 466.43 626.63 464.887 629.554C464.634 630.034 465.148 631.517 465.589 631.657C467.245 632.185 469.036 632.666 470.742 632.566C472.628 632.456 474.476 631.69 476.341 631.209C475.041 632.776 473.504 634.208 472.517 635.952C471.73 637.342 470.732 639.805 471.352 640.593C473.971 643.922 477.161 646.802 481.294 651.022C482.006 656.089 484.629 658.126 492.427 657.511C496.688 657.175 501.535 659.392 504.464 654.803C507.403 657.431 510.827 659.438 512.587 662.426C513.833 664.543 512.828 667.985 512.828 670.479C515.115 671.716 517.231 673.262 519.599 674.055C523.92 675.502 528.385 676.521 532.8 677.683C536.07 678.544 539.356 679.349 542.82 680.46C530.034 681.702 518.028 677.762 506.426 672.808C488.099 664.981 472.346 653.55 463.758 635.035C460.046 627.029 459.117 617.715 457.138 608.947C456.891 607.854 457.963 606.463 458.424 605.211C459.381 606.052 460.331 606.901 461.296 607.733C466.354 612.09 471.318 616.563 476.493 620.776C492.165 633.529 510.638 639.81 530.129 643.634C532.271 644.055 534.482 644.131 536.835 644.682Z" fill="#9350C7"/>
<path d="M637.382 762.302C661.416 761.909 685.543 761.824 709.666 762.05C716.433 762.114 714.813 757.625 714.93 753.415C714.924 720.621 714.946 688.277 714.96 655.217C714.951 654.5 714.935 654.003 714.935 654.003C714.944 647.307 714.954 640.612 714.972 633.015C714.672 629.369 714.363 626.624 714.053 623.88C714.526 619.81 714.999 615.741 715.625 611.307C715.833 647.762 715.892 684.58 715.938 721.397C715.955 735.04 715.941 748.683 715.941 762.15C715.432 762.519 715.174 762.869 714.916 762.869C689.102 762.839 663.288 762.783 637.382 762.302Z" fill="#9350C7"/>
<path d="M562.057 730.474C585.064 730.043 608.272 729.998 631.48 730.011C632.76 730.012 634.04 730.493 635.651 731.01C613.061 731.193 590.139 731.119 567.218 731.033C565.565 731.027 563.912 730.928 562.057 730.474Z" fill="#9350C7"/>
<path d="M604.524 692.842C603.589 693.149 602.196 693.919 600.801 693.924C581.602 693.987 562.402 693.951 543.203 693.913C542.391 693.911 541.58 693.642 540.39 693.339C561.363 693.103 582.714 693.026 604.524 692.842Z" fill="#9350C7"/>
<path d="M544.684 680.708C562.697 680.715 580.404 680.772 598.11 680.917C600.21 680.934 602.306 681.429 604.69 682.02C586.34 682.254 567.703 682.178 549.066 682.078C547.416 682.069 545.767 681.908 543.943 681.385C543.972 680.898 544.175 680.842 544.684 680.708Z" fill="#9350C7"/>
<path d="M585.475 644.972C585.006 645.263 584.074 645.862 583.144 645.857C570.706 645.798 558.269 645.655 545.456 645.388C558.391 645.162 571.702 645.08 585.475 644.972Z" fill="#9350C7"/>
<path d="M635.843 554.338C636.193 554.783 636.576 555.606 636.961 556.779C636.601 556.325 636.238 555.521 635.843 554.338Z" fill="#9350C7"/>
<path d="M715.69 470.192C715.919 484.372 716.043 498.844 716.052 513.316C716.069 544.932 716.028 576.547 715.939 608.64C715.581 606.828 715.053 604.541 715.047 602.253C714.986 578.441 715.018 554.629 715.007 530.818C714.999 514.536 714.965 498.255 714.947 481.124C714.931 479.506 714.911 478.737 714.891 477.969C714.905 476.601 714.92 475.232 714.9 473.456C715.088 472.194 715.311 471.34 715.69 470.192Z" fill="#9350C7"/>
<path d="M526.595 653.906C524.597 653.472 522.974 653.008 521.351 652.544C521.49 651.824 521.629 651.105 521.768 650.385C524.426 650.668 527.084 650.951 529.742 651.235C529.836 651.63 529.93 652.025 530.024 652.421C529.006 652.905 527.988 653.39 526.595 653.906Z" fill="#9350C7"/>
<path d="M512.12 611.51C512.318 612.837 512.205 614.014 512.092 615.19C510.462 614.714 508.832 614.237 507.201 613.761C507.303 613.125 507.404 612.489 507.505 611.853C508.94 611.689 510.374 611.524 512.12 611.51Z" fill="#9350C7"/>
<path d="M530.602 610.012C531.727 609.245 532.807 608.776 533.887 608.307C534.03 609.039 534.173 609.771 534.317 610.503C533.063 610.439 531.809 610.375 530.602 610.012Z" fill="#9350C7"/>
<path d="M514.493 657.231C513.77 656.699 513.287 656.068 512.804 655.438C513.352 655.214 513.901 654.99 514.45 654.767C514.544 655.556 514.638 656.344 514.493 657.231Z" fill="#9350C7"/>
<path d="M714.039 624.326C714.363 626.624 714.672 629.369 714.957 632.546C714.63 630.242 714.327 627.507 714.039 624.326Z" fill="#9350C7"/>
<path d="M714.616 478.06C714.911 478.737 714.931 479.506 714.924 480.658C714.207 480.585 713.517 480.127 712.827 479.668C713.332 479.163 713.836 478.657 714.616 478.06Z" fill="#9350C7"/>
<path d="M714.873 654.121C714.935 654.003 714.951 654.5 714.943 654.749C714.775 654.761 714.734 654.509 714.873 654.121Z" fill="#9350C7"/>
<defs>
<linearGradient id="paint0_linear_0_1" x1="62" y1="51.5" x2="1002.5" y2="901" gradientUnits="userSpaceOnUse">
<stop offset="0.190797" stop-color="#FFE07A"/>
<stop offset="0.227105" stop-color="#D3AE3D"/>
<stop offset="0.323327" stop-color="#6F5300"/>
<stop offset="0.345107" stop-color="#614801"/>
<stop offset="0.499598" stop-color="#2E2006"/>
</linearGradient>
</defs>
</svg>
